<?xml version="1.0" encoding="utf-8"?>
<!-- Generator: Adobe Illustrator 16.0.0, SVG Export Plug-In . SVG Version: 6.00 Build 0)  -->
<!DOCTYPE svg PUBLIC "-//W3C//DTD SVG 1.1//EN" "http://www.w3.org/Graphics/SVG/1.1/DTD/svg11.dtd">
<svg version="1.1" id="Layer_1" xmlns="http://www.w3.org/2000/svg" xmlns:xlink="http://www.w3.org/1999/xlink" x="0px" y="0px"
	 width="90px" height="90px" viewBox="0 0 90 90" enable-background="new 0 0 90 90" xml:space="preserve">
<g>
	<path opacity="0.9" fill="#345EA3" d="M46.527,12.245c-6.41,26.956-22.126,29.653-21.762,46.715
		c0.303,14.216,11.167,19.493,20.629,19.63c10.457,0.149,20.236-4.828,20.139-19.664C65.442,45.195,51.261,39.143,46.527,12.245z
		 M44.509,22.997c0,0-3.027,11.345-4.451,13.037c-1.423,1.693-3.552,5.078-3.552,5.078l-1.428-0.845c0,0,5.335-7.279,6.224-9.479
		C42.192,28.586,44.509,22.997,44.509,22.997z M31.56,44.456l2.338,0.534c0,0-0.963,2.375-1.326,3.531
		c-0.756,2.393,0,12.689,0,12.689l-4.787,0.472c0,0-0.496-0.478-0.496-5.505C27.289,51.151,31.56,44.456,31.56,44.456z"/>
	<g>
		<path fill="#00539B" d="M44.637,2.168c-24.46,0-44.361,19.4-44.361,43.25c0,23.848,19.901,43.248,44.361,43.248
			C69.102,88.666,89,69.267,89,45.418C89,21.569,69.102,2.168,44.637,2.168z M44.637,82.588c-21.023,0-38.126-16.674-38.126-37.169
			c0-20.499,17.103-37.17,38.126-37.17c21.025,0,38.127,16.673,38.127,37.17C82.764,65.914,65.662,82.588,44.637,82.588z"/>
		<path fill="#00539B" d="M44.637,2.677c-24.211,0-43.84,19.137-43.84,42.741c0,23.605,19.629,42.743,43.84,42.743
			c24.214-0.003,43.842-19.138,43.842-42.743C88.479,21.814,68.851,2.677,44.637,2.677z M44.637,83.098
			c-21.345,0-38.646-16.872-38.646-37.681s17.302-37.68,38.646-37.68c21.346,0,38.65,16.871,38.65,37.68
			C83.287,66.228,65.982,83.098,44.637,83.098z"/>
	</g>
	<g id="XMLID_1_">
		<g>
		</g>
		<g>
			<line fill="none" stroke="#00539B" stroke-width="7" stroke-miterlimit="10" x1="19.291" y1="76.668" x2="71.002" y2="14.156"/>
		</g>
	</g>
</g>
</svg>
