<?xml version="1.0" encoding="utf-8"?>
<!-- Generator: Adobe Illustrator 15.0.0, SVG Export Plug-In . SVG Version: 6.00 Build 0)  -->
<!DOCTYPE svg PUBLIC "-//W3C//DTD SVG 1.0//EN" "http://www.w3.org/TR/2001/REC-SVG-20010904/DTD/svg10.dtd">
<svg version="1.0" id="Layer_1" xmlns="http://www.w3.org/2000/svg" xmlns:xlink="http://www.w3.org/1999/xlink" x="0px" y="0px"
	 width="125px" height="90px" viewBox="0 0 125 90" enable-background="new 0 0 125 90" xml:space="preserve">
<g>
	<path fill="#F5F5F5" d="M103.479,19.45L66.316,3.597c-2.107-0.899-5.525-0.899-7.633,0L21.523,19.45
		c-2.112,0.9-2.112,2.358,0,3.257h81.956C105.588,21.808,105.588,20.35,103.479,19.45z"/>
	<path fill="#F5F5F5" d="M101.502,25.49H23.499c-0.312,0-0.569,0.369-0.569,0.825v33.19c0,0.362,0.257,0.654,0.569,0.654h6.266
		h0.417h0.355V35.231c0-2.568,2.083-4.65,4.652-4.65h12.405c2.569,0,4.652,2.082,4.652,4.65v24.928h5.595h1.212v4.059H36.098v5.654
		h0.005v5.536c-2.716,0.566-4.754,2.934-4.754,5.769c0,3.259,2.688,5.9,6.004,5.9c3.315,0,6.005-2.642,6.005-5.9
		c0-2.835-2.037-5.2-4.753-5.769v-5.536h20.448v5.794c-2.264,0.845-3.876,2.993-3.876,5.514c0,3.256,2.688,5.897,6.004,5.897
		c3.315,0,6.004-2.642,6.004-5.897c0-2.521-1.612-4.669-3.877-5.514v-5.794h23.088v5.536c-2.717,0.566-4.754,2.936-4.754,5.771
		c0,3.256,2.688,5.897,6.004,5.897c3.317,0,6.006-2.642,6.006-5.897c0-2.836-2.039-5.203-4.754-5.771v-7.012h-0.008v-4.176
		l-25.582-0.003v-4.059h36.234h1.959c0.314,0,0.568-0.292,0.568-0.654v-33.19C102.07,25.859,101.816,25.49,101.502,25.49z
		 M92.482,43.791c0,3.209-2.082,5.811-4.65,5.811H72.48c-2.57,0-4.652-2.602-4.652-5.811v-7.554c0-3.21,2.082-5.812,4.652-5.812
		h15.352c2.568,0,4.65,2.602,4.65,5.812V43.791z"/>
</g>
</svg>
