<?xml version="1.0" encoding="utf-8"?>
<!-- Generator: Adobe Illustrator 15.0.0, SVG Export Plug-In . SVG Version: 6.00 Build 0)  -->
<!DOCTYPE svg PUBLIC "-//W3C//DTD SVG 1.1//EN" "http://www.w3.org/Graphics/SVG/1.1/DTD/svg11.dtd">
<svg version="1.1" id="Layer_1" xmlns="http://www.w3.org/2000/svg" xmlns:xlink="http://www.w3.org/1999/xlink" x="0px" y="0px"
	 width="114px" height="90px" viewBox="0 0 114 90" enable-background="new 0 0 114 90" xml:space="preserve">
<g>
	<path fill="#00539B" d="M108.164,65.59h-6.031c-2.563-3.1-6.438-5.074-10.773-5.074c-4.338,0-8.213,1.977-10.773,5.074H60.453
		c-2.563-3.1-6.438-5.074-10.774-5.074c-4.338,0-8.212,1.977-10.775,5.074h-5.411c-1.099,0-1.726-1.1-1.992-1.725
		c0.392-1.945,3.212-2.791,3.217-2.793l3.228-0.877l71.68-6.096V10.766H24.285l-2.586-9.234H5.835c-1.93,0-3.494,1.564-3.494,3.494
		c0,1.93,1.564,3.494,3.494,3.494h10.563l9.41,33.607v1.497h0.419l3.396,12.126c-2.605,1.582-5.158,4.35-5.158,8.57v0.443l0.11,0.43
		c0.659,2.553,3.371,7.385,8.915,7.385h2.356C35.759,73.205,35.7,73.84,35.7,74.49c0,7.721,6.258,13.979,13.977,13.979
		c7.72,0,13.976-6.258,13.976-13.979c0-0.65-0.059-1.285-0.145-1.912h14.018c-0.086,0.627-0.145,1.262-0.145,1.912
		c0,7.721,6.256,13.979,13.977,13.979s13.979-6.258,13.979-13.979c0-0.65-0.063-1.285-0.146-1.912h2.976
		c1.931,0,3.494-1.563,3.494-3.494C111.658,67.154,110.094,65.59,108.164,65.59z M29.558,29.592h13.268v8.04H31.809L29.558,29.592z
		 M48.815,29.592h15.212v8.04H48.815V29.592z M85.232,37.632H70.018v-8.04h15.215V37.632L85.232,37.632z M91.223,29.592h12.41v8.04
		h-12.41V29.592L91.223,29.592z M85.232,43.624v6.539l-15.215,1.293v-7.832H85.232z M70.018,23.604v-6.85h15.215v6.85H70.018z
		 M64.027,23.604H48.815v-6.85h15.212V23.604z M64.027,43.624v8.341l-15.212,1.293v-9.634H64.027z M91.223,49.652v-6.03h12.41V48.6
		L91.223,49.652z M103.633,23.604h-12.41v-6.85h12.41V23.604L103.633,23.604z M42.825,16.753v6.85H27.879l-1.918-6.85H42.825z
		 M42.825,43.624V53.77l-6.348,0.539l-2.991-10.685H42.825z M56.625,74.49c0,3.838-3.107,6.947-6.945,6.947
		s-6.946-3.109-6.946-6.947c0-0.664,0.099-1.303,0.272-1.912l0,0c0.103-0.354,0.232-0.697,0.388-1.027
		c0.008-0.016,0.016-0.031,0.021-0.047c0.312-0.65,0.72-1.246,1.208-1.766c0.015-0.014,0.025-0.029,0.039-0.043
		c0.236-0.248,0.493-0.48,0.764-0.689c0.032-0.021,0.065-0.049,0.099-0.07c0.543-0.408,1.146-0.734,1.798-0.975
		c0.052-0.018,0.103-0.039,0.155-0.057c0.312-0.104,0.633-0.186,0.962-0.246c0.063-0.01,0.128-0.018,0.19-0.027
		c0.344-0.053,0.691-0.088,1.05-0.088c0.357,0,0.705,0.035,1.05,0.088c0.063,0.012,0.127,0.02,0.189,0.027
		c0.329,0.064,0.65,0.143,0.962,0.246c0.054,0.018,0.104,0.039,0.155,0.057c0.649,0.236,1.255,0.564,1.798,0.975
		c0.033,0.021,0.064,0.049,0.1,0.07c0.271,0.211,0.525,0.439,0.765,0.689c0.013,0.014,0.024,0.029,0.038,0.043
		c0.488,0.52,0.896,1.113,1.207,1.766c0.009,0.016,0.017,0.031,0.021,0.047c0.154,0.33,0.285,0.674,0.389,1.027l0,0
		C56.525,73.188,56.625,73.826,56.625,74.49z M91.359,81.438c-3.836,0-6.947-3.109-6.947-6.947c0-3.834,3.111-6.945,6.947-6.945
		s6.945,3.111,6.945,6.945C98.305,78.328,95.195,81.438,91.359,81.438z"/>
	<circle fill="#00539B" cx="49.679" cy="74.491" r="3.298"/>
	<circle fill="#00539B" cx="91.357" cy="74.491" r="3.298"/>
</g>
</svg>
