<?xml version="1.0" encoding="utf-8"?>
<!-- Generator: Adobe Illustrator 15.0.0, SVG Export Plug-In . SVG Version: 6.00 Build 0)  -->
<!DOCTYPE svg PUBLIC "-//W3C//DTD SVG 1.1//EN" "http://www.w3.org/Graphics/SVG/1.1/DTD/svg11.dtd">
<svg version="1.1" id="Layer_1" xmlns="http://www.w3.org/2000/svg" xmlns:xlink="http://www.w3.org/1999/xlink" x="0px" y="0px"
	 width="125px" height="90px" viewBox="0 0 125 90" enable-background="new 0 0 125 90" xml:space="preserve">
<g>
	<path fill="#F5F5F5" d="M110.506,56.23l-0.236-46.213l-9.586,1.177l0.145-9.726L61.585,6.181L22.345,1.469l0.145,9.726
		l-9.586-1.177l-0.271,54.316l44.944-1.367l10.812,13.148c5.446,7.007,8.221,11.646,10.594,12.037l27.106,0.349
		c2.545,0.419,4.271-3.431,4.662-6.157l1.563-21.388C112.582,59.078,111.825,57.303,110.506,56.23z M81.068,24.872
		c-2.575,0-4.661,2.35-4.661,5.248l0.028,3.67c-1.119-1.156-1.813-2.731-1.813-4.47c0-3.552,2.879-6.431,6.43-6.431
		c3.553,0,6.432,2.879,6.432,6.431c0,1.708-0.668,3.254-1.754,4.405V30.12C85.73,27.222,83.646,24.872,81.068,24.872z
		 M106.835,14.833v40.456c-1.549,0.314-2.866,1.462-3.459,3.053v-2.949c0-2.242-1.385-4.115-3.28-4.75l0.549-34.976L106.835,14.833z
		 M63.534,10.915l33.5-3.666l-0.757,43.89c-0.645,0.426-1.188,1.01-1.573,1.707v-2.334c0-2.76-2.088-4.994-4.664-4.994
		c-1.942,0-3.608,1.275-4.31,3.088V35.906c2.062-1.467,3.416-3.862,3.416-6.585c0-4.47-3.623-8.094-8.094-8.094
		c-4.469,0-8.094,3.624-8.094,8.094c0,2.756,1.389,5.176,3.493,6.637l0.164,20.808l-13.365,0.809L63.534,10.915z M59.702,10.582
		l0.22,46.991l-32.387-3.491l-0.5-47.167L59.702,10.582z M16.336,60.334V15l6.212,0.549l0.655,43.57l16.75,1.02L16.336,60.334z
		 M76.445,66.913c-0.997,2.212-3.877-1.261-5.729-3.265l-0.55-0.688l6.499-0.009l0.012,1.439
		C76.516,64.803,76.628,66.512,76.445,66.913z"/>
	<path fill="#F5F5F5" d="M70.659,29.668c0-5.742,4.653-10.396,10.396-10.396c5.741,0,10.396,4.653,10.396,10.396
		c0,3.208-1.457,6.075-3.742,7.979v3.285c3.849-2.279,6.433-6.469,6.433-11.265c0-7.227-5.859-13.085-13.086-13.085
		c-7.228,0-13.084,5.859-13.084,13.086c0,4.796,2.581,8.984,6.43,11.262v-3.281C72.116,35.743,70.659,32.876,70.659,29.668z"/>
	<polygon fill="#F5F5F5" points="56.635,15.881 30.808,13.052 30.808,16.745 56.635,19.571 	"/>
	<polygon fill="#F5F5F5" points="56.635,25.993 30.808,23.163 30.808,26.858 56.635,29.684 	"/>
	<polygon fill="#F5F5F5" points="56.635,36.105 30.808,33.275 30.808,36.973 56.635,39.796 	"/>
	<polygon fill="#F5F5F5" points="56.635,46.219 30.808,43.391 30.808,47.084 56.635,49.908 	"/>
</g>
</svg>
