<?xml version="1.0" encoding="utf-8"?>
<!-- Generator: Adobe Illustrator 15.0.0, SVG Export Plug-In . SVG Version: 6.00 Build 0)  -->
<!DOCTYPE svg PUBLIC "-//W3C//DTD SVG 1.0//EN" "http://www.w3.org/TR/2001/REC-SVG-20010904/DTD/svg10.dtd">
<svg version="1.0" id="Layer_1" xmlns="http://www.w3.org/2000/svg" xmlns:xlink="http://www.w3.org/1999/xlink" x="0px" y="0px"
	 width="125px" height="90px" viewBox="0 0 125 90" enable-background="new 0 0 125 90" xml:space="preserve">
<g>
	<path fill="#F5F5F5" d="M45.124,21.857c1.737,0.45,2.265-1.163,2.265-1.163s0.646-2.172,1.889-2.14
		c1.762-0.04,3.02-0.001,4.593,0.032c1.51,0.031,1.887,2.137,1.887,2.137s0.44,1.997,2.579,1.008
		c1.366-0.635,0.598-2.453,0.598-2.453L53.556,3.866c0,0-0.313-1.322-1.981-1.322c-1.698-0.065-2.045,1.479-2.045,1.479
		l-5.473,15.697C44.057,19.719,43.364,21.401,45.124,21.857z M49.975,13.41c0.131-0.375,0.86-2.547,0.888-2.62
		c0.104-0.272,0.379-0.465,0.702-0.461c0.331,0.003,0.608,0.21,0.7,0.497c0.021,0.065,0.903,2.561,0.902,2.634
		c0,0.084,0.396,1.043-0.578,1.063c-0.126,0.004-1.926-0.009-2.06-0.022C49.587,14.412,49.908,13.6,49.975,13.41z"/>
	<path fill="#F5F5F5" d="M65.648,21.74c1.738,0.448,2.267-1.165,2.267-1.165s0.644-2.17,1.886-2.139
		c1.763-0.039,3.021,0,4.594,0.033c1.51,0.031,1.889,2.138,1.889,2.138s0.438,1.999,2.575,1.006c1.368-0.632,0.6-2.452,0.6-2.452
		L74.08,3.749c0,0-0.315-1.323-1.983-1.323c-1.698-0.063-2.042,1.479-2.042,1.479l-5.476,15.695
		C64.579,19.599,63.888,21.281,65.648,21.74z M70.5,13.292c0.13-0.375,0.858-2.546,0.885-2.618c0.104-0.272,0.382-0.467,0.703-0.463
		c0.331,0.003,0.61,0.212,0.701,0.497c0.021,0.066,0.903,2.559,0.903,2.633c0,0.086,0.396,1.042-0.58,1.064
		c-0.125,0.004-1.926-0.007-2.06-0.022C70.111,14.295,70.434,13.481,70.5,13.292z"/>
	<path fill="#F5F5F5" d="M60.688,15.197c0,0,0,1.194,1.163,1.257c0.944-0.063,1.021-1.214,1.021-1.214l0.08-4.667l1.982-3.24
		c0,0,0.521-0.858-0.283-1.384c-1.008-0.66-1.542,0.377-1.542,0.377l-1.354,2.076c0,0-1.281-2.046-1.426-2.223
		c-0.194-0.236-0.489-0.386-0.822-0.386c-0.582,0-1.054,0.463-1.054,1.036s2.297,3.776,2.297,3.776L60.688,15.197z"/>
	<path fill="#F5F5F5" d="M108.65,24.187h-2.304c0.079-2.876-1.49-10.947-21.539-11.411v11.411H38.666V12.776
		c-20.052,0.463-21.62,8.535-21.54,11.411H16.35c-1.762,0-3.19,1.773-3.19,3.962v59.427h31.067V70.327
		c0-1.892,1.162-3.425,2.596-3.425h11.682c1.435,0,2.597,1.533,2.597,3.425v17.249h2.229V70.327c0-1.892,1.163-3.425,2.597-3.425
		h11.682c1.434,0,2.598,1.533,2.598,3.425v17.249h31.636V28.149C111.841,25.96,110.413,24.187,108.65,24.187z M27.243,61.802
		c0,1.24-1.004,2.245-2.245,2.245H20.51c-1.241,0-2.246-1.005-2.246-2.245V57.61c0-1.24,1.005-2.244,2.246-2.244h4.488
		c1.241,0,2.245,1.004,2.245,2.244V61.802z M27.243,48.324c0,1.241-1.004,2.246-2.245,2.246H20.51c-1.241,0-2.246-1.005-2.246-2.246
		v-4.192c0-1.238,1.005-2.245,2.246-2.245h4.488c1.241,0,2.245,1.007,2.245,2.245V48.324z M27.243,34.846
		c0,1.241-1.004,2.247-2.245,2.247H20.51c-1.241,0-2.246-1.006-2.246-2.247v-4.191c0-1.239,1.005-2.245,2.246-2.245h4.488
		c1.241,0,2.245,1.006,2.245,2.245V34.846z M40.417,61.802c0,1.24-1.005,2.245-2.245,2.245h-4.489c-1.24,0-2.246-1.005-2.246-2.245
		V57.61c0-1.24,1.006-2.244,2.246-2.244h4.489c1.24,0,2.245,1.004,2.245,2.244V61.802z M40.417,48.324
		c0,1.241-1.005,2.246-2.245,2.246h-4.489c-1.24,0-2.246-1.005-2.246-2.246v-4.192c0-1.238,1.006-2.245,2.246-2.245h4.489
		c1.24,0,2.245,1.007,2.245,2.245V48.324z M40.417,34.846c0,1.241-1.005,2.247-2.245,2.247h-4.489c-1.24,0-2.246-1.006-2.246-2.247
		v-4.191c0-1.239,1.006-2.245,2.246-2.245h4.489c1.24,0,2.245,1.006,2.245,2.245V34.846z M53.59,61.802
		c0,1.24-1.005,2.245-2.245,2.245h-4.49c-1.239,0-2.245-1.005-2.245-2.245V57.61c0-1.24,1.006-2.244,2.245-2.244h4.49
		c1.24,0,2.245,1.004,2.245,2.244V61.802z M53.59,48.324c0,1.241-1.005,2.246-2.245,2.246h-4.49c-1.239,0-2.245-1.005-2.245-2.246
		v-4.192c0-1.238,1.006-2.245,2.245-2.245h4.49c1.24,0,2.245,1.007,2.245,2.245V48.324z M53.59,34.846
		c0,1.241-1.005,2.247-2.245,2.247h-4.49c-1.239,0-2.245-1.006-2.245-2.247v-4.191c0-1.239,1.006-2.245,2.245-2.245h4.49
		c1.24,0,2.245,1.006,2.245,2.245V34.846z M66.764,61.802c0,1.24-1.006,2.245-2.245,2.245h-4.491c-1.24,0-2.244-1.005-2.244-2.245
		V57.61c0-1.24,1.004-2.244,2.244-2.244h4.491c1.239,0,2.245,1.004,2.245,2.244V61.802z M66.764,48.324
		c0,1.241-1.006,2.246-2.245,2.246h-4.491c-1.24,0-2.244-1.005-2.244-2.246v-4.192c0-1.238,1.004-2.245,2.244-2.245h4.491
		c1.239,0,2.245,1.007,2.245,2.245V48.324z M66.764,34.846c0,1.241-1.006,2.247-2.245,2.247h-4.491c-1.24,0-2.244-1.006-2.244-2.247
		v-4.191c0-1.239,1.004-2.245,2.244-2.245h4.491c1.239,0,2.245,1.006,2.245,2.245V34.846z M79.936,61.802
		c0,1.24-1.004,2.245-2.245,2.245h-4.489c-1.241,0-2.245-1.005-2.245-2.245V57.61c0-1.24,1.004-2.244,2.245-2.244h4.489
		c1.241,0,2.245,1.004,2.245,2.244V61.802z M79.936,48.324c0,1.241-1.004,2.246-2.245,2.246h-4.489
		c-1.241,0-2.245-1.005-2.245-2.246v-4.192c0-1.238,1.004-2.245,2.245-2.245h4.489c1.241,0,2.245,1.007,2.245,2.245V48.324z
		 M79.936,34.846c0,1.241-1.004,2.247-2.245,2.247h-4.489c-1.241,0-2.245-1.006-2.245-2.247v-4.191c0-1.239,1.004-2.245,2.245-2.245
		h4.489c1.241,0,2.245,1.006,2.245,2.245V34.846z M93.109,61.802c0,1.24-1.005,2.245-2.245,2.245h-4.49
		c-1.24,0-2.245-1.005-2.245-2.245V57.61c0-1.24,1.005-2.244,2.245-2.244h4.49c1.24,0,2.245,1.004,2.245,2.244V61.802z
		 M93.109,48.324c0,1.241-1.005,2.246-2.245,2.246h-4.49c-1.24,0-2.245-1.005-2.245-2.246v-4.192c0-1.238,1.005-2.245,2.245-2.245
		h4.49c1.24,0,2.245,1.007,2.245,2.245V48.324z M93.109,34.846c0,1.241-1.005,2.247-2.245,2.247h-4.49
		c-1.24,0-2.245-1.006-2.245-2.247v-4.191c0-1.239,1.005-2.245,2.245-2.245h4.49c1.24,0,2.245,1.006,2.245,2.245V34.846z
		 M106.282,61.802c0,1.24-1.005,2.245-2.245,2.245h-4.49c-1.24,0-2.245-1.005-2.245-2.245V57.61c0-1.24,1.005-2.244,2.245-2.244
		h4.49c1.24,0,2.245,1.004,2.245,2.244V61.802z M106.282,48.324c0,1.241-1.005,2.246-2.245,2.246h-4.49
		c-1.24,0-2.245-1.005-2.245-2.246v-4.192c0-1.238,1.005-2.245,2.245-2.245h4.49c1.24,0,2.245,1.007,2.245,2.245V48.324z
		 M106.282,34.846c0,1.241-1.005,2.247-2.245,2.247h-4.49c-1.24,0-2.245-1.006-2.245-2.247v-4.191c0-1.239,1.005-2.245,2.245-2.245
		h4.49c1.24,0,2.245,1.006,2.245,2.245V34.846z"/>
	<path fill="#F5F5F5" d="M56.487,73.994c-0.378,0-0.686,0.307-0.686,0.685v7.539c0,0.378,0.308,0.685,0.686,0.685
		c0.379,0,0.686-0.307,0.686-0.685v-7.539C57.173,74.301,56.866,73.994,56.487,73.994z"/>
	<path fill="#F5F5F5" d="M66.42,73.994c-0.379,0-0.687,0.307-0.687,0.685v7.539c0,0.378,0.308,0.685,0.687,0.685
		c0.378,0,0.684-0.307,0.684-0.685v-7.539C67.104,74.301,66.798,73.994,66.42,73.994z"/>
</g>
</svg>
