<?xml version="1.0" encoding="utf-8"?>
<!-- Generator: Adobe Illustrator 15.0.0, SVG Export Plug-In . SVG Version: 6.00 Build 0)  -->
<!DOCTYPE svg PUBLIC "-//W3C//DTD SVG 1.0//EN" "http://www.w3.org/TR/2001/REC-SVG-20010904/DTD/svg10.dtd">
<svg version="1.0" id="Layer_1" xmlns="http://www.w3.org/2000/svg" xmlns:xlink="http://www.w3.org/1999/xlink" x="0px" y="0px"
	 width="127px" height="90px" viewBox="0 0 127 90" enable-background="new 0 0 127 90" xml:space="preserve">
<g>
	<path fill="#00539B" d="M95.095,41.334c-0.075,5.143,0.526,8.788,1.819,10.891c0.277,0.442,0.575,0.828,0.885,1.173l0.268-23.832
		c-0.302,0.373-0.59,0.774-0.856,1.227C95.875,33.053,95.17,36.55,95.095,41.334z"/>
	<path fill="#00539B" d="M38.47,37.184c-0.044-0.369-0.261-0.614-0.55-0.586c-0.28,0.032-0.547,0.324-0.672,0.697
		c-0.033,0.097-0.946,3.072-1.108,3.587c-0.081,0.261-0.47,1.385,0.343,1.408c0.116,0,1.695-0.167,1.809-0.186
		c0.862-0.129,0.632-1.38,0.641-1.492C38.945,40.515,38.481,37.27,38.47,37.184z"/>
	<path fill="#00539B" d="M18.944,44.509c0.108,0,1.609-0.16,1.715-0.176c0.818-0.123,0.633-1.345,0.646-1.458
		c0.01-0.095-0.341-3.268-0.35-3.354c-0.034-0.362-0.231-0.599-0.505-0.571c-0.267,0.028-0.525,0.308-0.65,0.67
		c-0.035,0.099-0.978,3.002-1.146,3.505C18.57,43.382,18.176,44.479,18.944,44.509z"/>
	<path fill="#00539B" d="M124.49,3.486c-0.057-2.039-1.363-3.484-2.915-3.234L11.458,17.853c-1.13,0.182-2.24,1.762-2.486,3.541
		L0.063,86.242c-0.292,2.13,0.459,3.816,1.686,3.756l121.719-6.015c1.748-0.087,3.113-2.221,3.048-4.749L124.49,3.486z
		 M50.007,37.572c0.068-0.88,0.842-1.679,1.733-1.793l19.944-2.484c0.946-0.117,1.678,0.519,1.639,1.425l-0.028,0.588
		c-0.042,0.91-0.845,1.742-1.792,1.854l-20.049,2.389c-0.892,0.108-1.56-0.524-1.491-1.407L50.007,37.572z M27.741,32.225
		c0.28-0.039,0.506,0.125,0.635,0.41c0.096,0.211,0.896,2.725,0.896,2.725l1.431-2.85c0,0,0.592-1.403,1.361-0.665
		c0.615,0.591,0.057,1.766,0.057,1.766l-2.132,4.461l-0.719,6.197c0,0-0.23,1.552-1.048,1.729c-0.989,0.028-0.815-1.569-0.815-1.569
		l0.708-6.084c0,0-1.482-3.921-1.401-4.659C26.793,32.94,27.254,32.29,27.741,32.225z M12.734,52.006l7.008-20.919
		c0,0,0.516-1.986,1.892-2.1c1.367-0.19,1.432,1.449,1.432,1.449l2.239,19.638c0,0,0.387,2.399-0.881,3.381
		c-1.984,1.539-2.053-1.135-2.053-1.135s0.003-2.809-1.27-2.714c-1.319,0.104-2.369,0.171-3.851,0.382
		c-1.029,0.071-1.923,3.026-1.923,3.026s-0.707,2.214-2.076,1.76C11.879,54.313,12.734,52.006,12.734,52.006z M41.5,70.486
		c-0.085,0.963-1.192,1.803-2.47,1.898l-26.718,1.943c-1.177,0.083-2.032-0.591-1.918-1.5l0.076-0.596
		c0.114-0.911,1.152-1.716,2.325-1.807l26.591-2.096c1.273-0.099,2.242,0.586,2.163,1.535L41.5,70.486z M42.438,59.491
		c-0.079,0.936-1.172,1.776-2.433,1.887l-26.382,2.349c-1.164,0.098-2.01-0.535-1.898-1.426l0.074-0.58
		c0.114-0.882,1.135-1.688,2.294-1.794l26.262-2.487c1.255-0.121,2.215,0.53,2.136,1.455L42.438,59.491z M42.539,51.429
		c-2.053,1.584-2.202-1.158-2.202-1.158s-0.079-2.869-1.421-2.767c-1.393,0.108-2.5,0.18-4.059,0.403
		c-1.087,0.073-1.946,3.106-1.946,3.106s-0.687,2.265-2.148,1.805c-1.471-0.468-0.632-2.828-0.632-2.828l6.817-21.422
		c0,0,0.49-2.028,1.94-2.153c1.44-0.205,1.555,1.473,1.555,1.473l2.93,20.076C43.373,47.964,43.852,50.419,42.539,51.429z
		 M82.357,67.413c-0.033,1.013-1.232,1.913-2.67,2.021l-29.952,2.172c-1.317,0.096-2.319-0.606-2.244-1.57l0.046-0.623
		c0.076-0.96,1.194-1.819,2.502-1.914l29.8-2.349c1.43-0.113,2.569,0.603,2.537,1.61L82.357,67.413z M82.72,55.821
		c-0.03,0.973-1.211,1.87-2.625,1.993l-29.529,2.621c-1.297,0.121-2.288-0.548-2.215-1.479l0.046-0.61
		c0.072-0.928,1.173-1.778,2.467-1.899l29.377-2.784c1.408-0.13,2.532,0.546,2.5,1.521L82.72,55.821z M83.04,45.661
		c-0.029,0.949-1.191,1.84-2.591,1.984l-29.156,2.999c-1.284,0.134-2.261-0.496-2.191-1.408l0.046-0.593
		c0.07-0.903,1.155-1.748,2.434-1.887l29.011-3.152c1.388-0.151,2.497,0.491,2.465,1.434L83.04,45.661z M83.757,22.872
		c-0.03,0.893-1.154,1.764-2.512,1.945l-28.312,3.816c-1.248,0.168-2.204-0.393-2.136-1.25l0.042-0.557
		c0.068-0.854,1.122-1.681,2.364-1.854l28.177-3.943c1.347-0.189,2.425,0.373,2.396,1.264L83.757,22.872z M110.196,58.413
		c-0.966,1.125-2.054,2.014-3.259,2.679l0.006,4.687l-3.31,0.245l0.009-3.729c-0.488,0.097-0.986,0.178-1.501,0.218
		c-0.411,0.032-0.809,0.032-1.203,0.024l-0.026,3.694l-3.257,0.247l0.051-4.571c-1.997-0.772-3.728-2.225-5.18-4.39
		c-2.396-3.566-3.502-8.555-3.354-14.93c0.155-6.628,1.466-11.841,3.932-15.717c1.428-2.25,3.114-3.917,5.049-5.039l0.045-4.258
		l3.046-0.431l-0.022,3.413c0.482-0.124,0.977-0.222,1.485-0.292c0.364-0.047,0.717-0.075,1.073-0.093l0.008-3.391l3.095-0.44
		l0.006,4.161c1.67,0.461,3.148,1.393,4.42,2.831c1.347,1.516,2.376,3.832,3.089,6.959l-5.898,2.632
		c-0.287-1.647-0.83-2.958-1.604-3.962l0.026,22.544c0.816-1.491,1.43-3.455,1.822-5.939l5.939,2.021
		C113.816,52.32,112.319,55.942,110.196,58.413z"/>
	<path fill="#00539B" d="M102.385,27.012c-0.419,0.054-0.818,0.159-1.207,0.289l-0.19,27.801c0.364,0.048,0.737,0.064,1.13,0.027
		c0.543-0.044,1.054-0.208,1.55-0.424l0.091-27.672C103.32,26.973,102.866,26.951,102.385,27.012z"/>
</g>
</svg>
