<?xml version="1.0" encoding="utf-8"?>
<!-- Generator: Adobe Illustrator 15.0.0, SVG Export Plug-In . SVG Version: 6.00 Build 0)  -->
<!DOCTYPE svg PUBLIC "-//W3C//DTD SVG 1.1//EN" "http://www.w3.org/Graphics/SVG/1.1/DTD/svg11.dtd">
<svg version="1.1" id="Layer_1" xmlns="http://www.w3.org/2000/svg" xmlns:xlink="http://www.w3.org/1999/xlink" x="0px" y="0px"
	 width="52px" height="68px" viewBox="0 0 52 68" enable-background="new 0 0 52 68" xml:space="preserve">
<g>
	<g>
		<circle fill="#00539B" cx="25.4" cy="16.53" r="6.975"/>
		<path fill="#00539B" d="M31.744,28.911c-0.009-0.032-0.043-0.058-0.084-0.058c-0.038,0-0.069,0.023-0.083,0.057
			c-0.003,0.007-0.092,0.266-0.105,0.311c-0.006,0.023-0.047,0.12,0.066,0.129c0.016,0.001,0.23,0.003,0.247,0.003
			c0.116-0.003,0.065-0.115,0.065-0.126C31.853,29.215,31.747,28.919,31.744,28.911z"/>
		<path fill="#00539B" d="M31.28,24.122c0.009,0.021,0.018,0.042,0.027,0.063c-0.399-0.146-1.978-0.393-1.981-0.42
			c-0.372,0.126-1.312,0.189-2.459,0.229l-0.335,0.957l-0.142,1.405h-0.324l1.814,11.253h6.938v-5.538
			c1.703,1.433,2.426,3.774,2.728,5.538h5.152C41.81,28.666,35.827,25.351,31.28,24.122z M30.022,30.227
			c-0.254,0.114-0.305-0.122-0.305-0.122s-0.046-0.252-0.227-0.255c-0.186-0.007-0.336-0.01-0.545-0.007
			c-0.148-0.003-0.223,0.256-0.223,0.256s-0.063,0.191-0.273,0.14c-0.209-0.057-0.125-0.255-0.125-0.255l0.65-1.87
			c0,0,0.045-0.183,0.244-0.175c0.197,0,0.234,0.155,0.234,0.155l0.643,1.837C30.097,29.934,30.187,30.15,30.022,30.227z
			 M30.563,29.451c0,0-0.01,0.139-0.123,0.146c-0.137-0.008-0.137-0.15-0.137-0.15L30.31,28.9c0,0-0.275-0.381-0.275-0.449
			s0.061-0.124,0.132-0.124c0.039,0,0.071,0.017,0.094,0.045c0.019,0.021,0.171,0.264,0.171,0.264l0.159-0.246
			c0,0,0.066-0.125,0.183-0.044c0.1,0.062,0.035,0.164,0.035,0.164l-0.234,0.388L30.563,29.451z M32.47,30.211
			c-0.258,0.119-0.308-0.119-0.308-0.119s-0.046-0.251-0.228-0.255c-0.186-0.003-0.336-0.006-0.545-0.003
			c-0.147-0.001-0.227,0.255-0.227,0.255s-0.061,0.19-0.27,0.14c-0.209-0.055-0.129-0.256-0.129-0.256l0.652-1.869
			c0,0,0.04-0.184,0.244-0.175c0.197,0,0.234,0.156,0.234,0.156l0.642,1.834C32.539,29.918,32.63,30.138,32.47,30.211z"/>
		<path fill="#00539B" d="M24.328,24.837l-0.313-0.773c-1.786,0.038-3.445,0.088-3.968,0.253c-4.444,1.367-9.901,4.777-10.75,13.293
			h5.151c0.305-1.764,1.021-4.104,2.73-5.539v5.539h6.344l1.4-11.254h-0.367L24.328,24.837z"/>
		<path fill="#00539B" d="M29.301,28.929c-0.009-0.034-0.04-0.061-0.081-0.061c-0.037,0-0.072,0.021-0.084,0.054
			c-0.006,0.011-0.095,0.269-0.104,0.314c-0.01,0.021-0.047,0.117,0.066,0.129c0.015,0.001,0.229,0.003,0.243,0.001
			c0.113-0.001,0.066-0.116,0.066-0.125C29.408,29.231,29.304,28.937,29.301,28.929z"/>
	</g>
	<path fill="#00539B" d="M46.44-0.154H5.558c-2.064,0-3.742,1.674-3.742,3.739v60.829c0,2.066,1.678,3.74,3.742,3.74H46.44
		c2.068,0,3.744-1.674,3.744-3.74V3.585C50.181,1.521,48.509-0.154,46.44-0.154z M16.402,62.42h-7.98
		c-0.963,0-1.743-0.779-1.743-1.744s0.78-1.746,1.743-1.746h7.98c0.963,0,1.745,0.781,1.745,1.746S17.365,62.42,16.402,62.42z
		 M25.998,64.664c-2.202,0-3.989-1.785-3.989-3.988s1.787-3.99,3.989-3.99c2.203,0,3.991,1.787,3.991,3.99
		S28.201,64.664,25.998,64.664z M43.576,62.42h-7.979c-0.962,0-1.744-0.779-1.744-1.744s0.783-1.746,1.744-1.746h7.979
		c0.963,0,1.743,0.781,1.743,1.746S44.539,62.42,43.576,62.42z M46.688,49.373c0,2.012-1.592,3.641-3.563,3.641H8.875
		c-1.971,0-3.565-1.629-3.565-3.641V7.158c0-2.01,1.596-3.638,3.565-3.638h34.251c1.971,0,3.563,1.628,3.563,3.638V49.373z"/>
	<path fill="#00539B" d="M43.077,41.672c0,0.756-0.646,1.371-1.445,1.371H10.366c-0.798,0-1.445-0.615-1.445-1.371l0,0
		c0-0.756,0.647-1.371,1.445-1.371h31.266C42.431,40.301,43.077,40.916,43.077,41.672L43.077,41.672z"/>
	<path fill="#00539B" d="M43.077,46.908c0,0.756-0.646,1.371-1.445,1.371H10.366c-0.798,0-1.445-0.615-1.445-1.371l0,0
		c0-0.758,0.647-1.373,1.445-1.373h31.266C42.431,45.535,43.077,46.15,43.077,46.908L43.077,46.908z"/>
</g>
</svg>
