<?xml version="1.0" encoding="utf-8"?>
<!-- Generator: Adobe Illustrator 15.0.0, SVG Export Plug-In . SVG Version: 6.00 Build 0)  -->
<!DOCTYPE svg PUBLIC "-//W3C//DTD SVG 1.1//EN" "http://www.w3.org/Graphics/SVG/1.1/DTD/svg11.dtd">
<svg version="1.1" id="Layer_1" xmlns="http://www.w3.org/2000/svg" xmlns:xlink="http://www.w3.org/1999/xlink" x="0px" y="0px"
	 width="69px" height="45px" viewBox="0 0 69 45" enable-background="new 0 0 69 45" xml:space="preserve">
<g>
	<path fill="#F4F5F5" d="M13.587,37.926"/>
	<g>
		<path fill="#5091CD" d="M27.6,42.885c-0.013-0.045-0.039-0.092-0.081-0.139l-3.623-4.164c-0.002-0.002-0.005-0.004-0.006-0.006
			V27.344c0-0.592-0.48-1.072-1.073-1.072H6.158c-0.592,0-1.072,0.48-1.072,1.072v11.232c-0.002,0.002-0.006,0.004-0.008,0.006
			l-3.624,4.164c-0.041,0.047-0.066,0.094-0.08,0.139c-0.12,0.258-0.095,0.66,0.217,0.924c0.061,0.063,0.156,0.117,0.285,0.162
			c0.164,0.064,0.366,0.104,0.619,0.104h0.155h11.28h0.155h0.801h0.155h11.281h0.156c0.251,0,0.454-0.039,0.617-0.104
			c0.129-0.045,0.225-0.1,0.285-0.162C27.696,43.545,27.719,43.143,27.6,42.885z M6.408,28.021c0-0.482,0.413-0.875,0.921-0.875
			h14.315c0.509,0,0.922,0.391,0.922,0.875v8.404c0,0.484-0.413,0.875-0.922,0.875H7.33c-0.508,0-0.921-0.391-0.921-0.875V28.021z"
			/>
		<path fill="#5091CD" d="M67.624,42.885c-0.014-0.045-0.039-0.092-0.081-0.139l-3.623-4.164c-0.001-0.002-0.005-0.004-0.006-0.006
			V27.344c0-0.592-0.48-1.072-1.073-1.072H46.183c-0.592,0-1.072,0.48-1.072,1.072v11.232c-0.002,0.002-0.006,0.004-0.008,0.006
			l-3.623,4.164c-0.042,0.047-0.066,0.094-0.08,0.139c-0.12,0.258-0.096,0.66,0.217,0.924c0.061,0.063,0.156,0.117,0.285,0.162
			c0.164,0.064,0.367,0.104,0.618,0.104h0.155h11.281h0.154h0.802h0.155h11.281h0.156c0.25,0,0.453-0.039,0.617-0.104
			c0.129-0.045,0.225-0.1,0.285-0.162C67.721,43.545,67.744,43.143,67.624,42.885z M46.433,28.021c0-0.482,0.413-0.875,0.922-0.875
			h14.314c0.51,0,0.922,0.391,0.922,0.875v8.404c0,0.484-0.412,0.875-0.922,0.875H47.354c-0.509,0-0.922-0.391-0.922-0.875V28.021z"
			/>
	</g>
	<path fill="#5091CD" d="M51.023,21.862c-0.016-0.058-0.051-0.117-0.104-0.178l-4.563-5.245c-0.003-0.002-0.007-0.003-0.01-0.006
		V2.277c0-0.746-0.604-1.352-1.352-1.352H24.002c-0.745,0-1.351,0.606-1.351,1.352v14.155c-0.002,0.003-0.005,0.004-0.007,0.006
		l-4.567,5.245c-0.053,0.061-0.084,0.12-0.102,0.178c-0.15,0.325-0.12,0.83,0.275,1.162c0.076,0.082,0.198,0.151,0.359,0.207
		c0.206,0.081,0.461,0.131,0.778,0.131h0.196H33.8h0.196h1.008H35.2h14.215h0.195c0.318,0,0.572-0.05,0.779-0.131
		c0.162-0.056,0.283-0.125,0.359-0.207C51.143,22.692,51.173,22.187,51.023,21.862z M24.319,3.131c0-0.609,0.521-1.103,1.161-1.103
		h18.04c0.642,0,1.162,0.493,1.162,1.103v10.589c0,0.61-0.521,1.104-1.162,1.104H25.48c-0.641,0-1.161-0.493-1.161-1.104V3.131z"/>
	<rect x="33.329" y="20.658" fill="#5091CD" width="2.341" height="9.369"/>
	<rect x="23.35" y="29.939" fill="#5091CD" width="23.084" height="2.342"/>
</g>
</svg>
