<?xml version="1.0" encoding="utf-8"?>
<!-- Generator: Adobe Illustrator 15.0.0, SVG Export Plug-In . SVG Version: 6.00 Build 0)  -->
<!DOCTYPE svg PUBLIC "-//W3C//DTD SVG 1.0//EN" "http://www.w3.org/TR/2001/REC-SVG-20010904/DTD/svg10.dtd">
<svg version="1.0" id="Layer_1" xmlns="http://www.w3.org/2000/svg" xmlns:xlink="http://www.w3.org/1999/xlink" x="0px" y="0px"
	 width="125px" height="90px" viewBox="0 0 125 90" enable-background="new 0 0 125 90" xml:space="preserve">
<g>
	<path fill="#F5F5F5" d="M38.044,43.312c0.004,0.016,0.007,0.023,0.013,0.041c-0.236-0.089-1.175-0.238-1.178-0.254
		c-0.221,0.074-0.779,0.112-1.465,0.135l-0.2,0.568l-0.084,0.84h-0.192l1.082,6.7h4.128v-3.295c1.015,0.847,1.446,2.245,1.626,3.295
		h3.067C44.311,46.016,40.752,44.037,38.044,43.312z"/>
	<path fill="#F5F5F5" d="M36.689,22.533c0,1.168,0.27,2.056,0.811,2.657c0.538,0.603,1.224,0.904,2.054,0.904
		c0.83,0,1.512-0.3,2.046-0.899c0.531-0.596,0.797-1.494,0.797-2.69c0-1.181-0.26-2.066-0.779-2.645
		c-0.519-0.583-1.205-0.874-2.064-0.874s-1.551,0.294-2.078,0.884C36.953,20.457,36.689,21.346,36.689,22.533z"/>
	<polygon fill="#F5F5F5" points="76.049,23.616 78.865,23.616 77.447,19.788 	"/>
	<circle fill="#F5F5F5" cx="34.541" cy="38.792" r="4.152"/>
	<path fill="#F5F5F5" d="M33.905,43.733l-0.189-0.461c-1.064,0.022-2.052,0.057-2.362,0.154c-2.648,0.808-5.896,2.842-6.402,7.915
		h3.068c0.179-1.05,0.606-2.448,1.625-3.295v3.295h3.778l0.833-6.7h-0.218L33.905,43.733z"/>
	<path fill="#F5F5F5" d="M104.734,31.299c0,0,0.096-0.63-2.673-0.63c-2.683,0-2.765,0.63-2.765,0.63s1.326,25.091-1.035,39.506
		c-0.464,2.821-1.087,4.837-1.883,6.335V8.229c0-2.379-2.235-4.309-4.999-4.309H24.053c-2.76,0-4.999,1.93-4.999,4.309v73.538
		c0,2.382,2.239,4.312,4.999,4.312H91.38c0.946,0,1.82-0.241,2.575-0.635C99.882,84.361,109.308,75.964,104.734,31.299z
		 M89.369,24.077c-0.143-0.172-0.392-0.318-0.747-0.446c-0.243-0.084-0.799-0.232-1.668-0.448c-1.118-0.277-1.899-0.62-2.351-1.022
		c-0.634-0.568-0.951-1.26-0.951-2.076c0-0.523,0.147-1.016,0.444-1.474c0.301-0.458,0.729-0.807,1.291-1.046
		c0.56-0.239,1.235-0.358,2.029-0.358c1.295,0,2.271,0.285,2.924,0.852c0.654,0.569,0.998,1.328,1.034,2.272l-2.084,0.094
		c-0.09-0.53-0.282-0.913-0.578-1.146c-0.289-0.23-0.73-0.348-1.315-0.348c-0.604,0-1.081,0.123-1.42,0.375
		c-0.225,0.155-0.332,0.372-0.332,0.641c0,0.243,0.102,0.451,0.31,0.624c0.261,0.219,0.899,0.451,1.913,0.69
		c1.012,0.236,1.764,0.486,2.248,0.742c0.485,0.255,0.865,0.605,1.14,1.049c0.276,0.441,0.413,0.989,0.413,1.641
		c0,0.593-0.164,1.146-0.491,1.663c-0.333,0.514-0.794,0.9-1.396,1.149c-0.602,0.251-1.347,0.381-2.245,0.381
		c-1.306,0-2.307-0.306-3.008-0.907c-0.695-0.604-1.113-1.483-1.248-2.637l2.022-0.196c0.125,0.679,0.37,1.18,0.742,1.499
		c0.376,0.317,0.877,0.48,1.513,0.48c0.671,0,1.178-0.142,1.518-0.428c0.337-0.281,0.509-0.615,0.509-0.997
		C89.585,24.458,89.514,24.25,89.369,24.077z M90.933,32.283c0.303,0,0.546,0.809,0.546,1.805c0,0.997-0.243,1.803-0.546,1.803
		H78.653c-0.301,0-0.545-0.806-0.545-1.803c0-0.996,0.244-1.805,0.545-1.805H90.933z M78.653,40.397h12.279
		c0.303,0,0.546,0.811,0.546,1.81c0,0.997-0.243,1.799-0.546,1.799H78.653c-0.301,0-0.545-0.802-0.545-1.799
		C78.108,41.208,78.353,40.397,78.653,40.397z M78.653,49.424h12.279c0.303,0,0.546,0.809,0.546,1.804
		c0,0.994-0.243,1.803-0.546,1.803H78.653c-0.301,0-0.545-0.809-0.545-1.803C78.108,50.232,78.353,49.424,78.653,49.424z
		 M78.653,58.897h12.279c0.303,0,0.546,0.802,0.546,1.796c0,0.998-0.243,1.807-0.546,1.807H78.653c-0.301,0-0.545-0.809-0.545-1.807
		C78.108,59.699,78.353,58.897,78.653,58.897z M78.653,67.009h12.279c0.303,0,0.546,0.809,0.546,1.804
		c0,0.998-0.243,1.803-0.546,1.803H78.653c-0.301,0-0.545-0.805-0.545-1.803C78.108,67.817,78.353,67.009,78.653,67.009z
		 M25.596,10.811h65.285c0.594,0,1.077,0.749,1.077,1.677c0,0.923-0.483,1.674-1.077,1.674H25.596c-0.593,0-1.075-0.751-1.075-1.674
		C24.521,11.56,25.003,10.811,25.596,10.811z M71.414,17.382V27.7h-2.083V17.382H71.414z M61.469,25.264
		c0.471,0.557,1.078,0.831,1.829,0.831c0.557,0,1.031-0.176,1.431-0.528c0.398-0.353,0.684-0.904,0.858-1.661l2.02,0.643
		c-0.309,1.124-0.824,1.962-1.544,2.51c-0.722,0.546-1.635,0.816-2.745,0.816c-1.368,0-2.494-0.466-3.376-1.404
		c-0.883-0.936-1.323-2.212-1.323-3.836c0-1.716,0.443-3.051,1.331-4.002c0.887-0.953,2.053-1.426,3.498-1.426
		c1.263,0,2.29,0.372,3.078,1.119c0.469,0.439,0.82,1.073,1.054,1.9l-2.061,0.493c-0.121-0.535-0.377-0.957-0.764-1.269
		c-0.388-0.31-0.856-0.464-1.412-0.464c-0.766,0-1.386,0.276-1.863,0.824c-0.476,0.547-0.714,1.438-0.714,2.667
		C60.765,23.78,60.999,24.711,61.469,25.264z M57.001,17.382V27.7h-2.084V17.382H57.001z M44.55,22.554
		c0,1.667-0.452,2.969-1.359,3.911c-0.905,0.939-2.113,1.409-3.629,1.409c-1.535,0-2.755-0.466-3.659-1.404
		c-0.907-0.936-1.358-2.222-1.358-3.866c0-1.051,0.156-1.935,0.469-2.646c0.236-0.526,0.556-0.996,0.962-1.414
		c0.407-0.415,0.849-0.726,1.333-0.931c0.643-0.272,1.383-0.406,2.224-0.406c1.52,0,2.735,0.473,3.648,1.415
		C44.093,19.563,44.55,20.879,44.55,22.554z M32.763,17.382V27.7h-2.092l-4.159-6.729V27.7h-1.933V17.382h2.027l4.222,6.893v-6.893
		H32.763z M45.05,79.188H25.314c-0.483,0-0.877-0.809-0.877-1.808c0-0.994,0.394-1.803,0.877-1.803H45.05
		c0.483,0,0.877,0.809,0.877,1.803C45.927,78.38,45.533,79.188,45.05,79.188z M45.05,70.615H25.314
		c-0.483,0-0.877-0.805-0.877-1.803c0-0.995,0.394-1.804,0.877-1.804H45.05c0.483,0,0.877,0.809,0.877,1.804
		C45.927,69.811,45.533,70.615,45.05,70.615z M45.05,62.5H25.314c-0.483,0-0.877-0.809-0.877-1.807c0-0.994,0.394-1.796,0.877-1.796
		H45.05c0.483,0,0.877,0.802,0.877,1.796C45.927,61.691,45.533,62.5,45.05,62.5z M23.476,53.424V32.56l22.84-0.002l0.002,20.866
		H23.476z M45.437,19.128v-1.746h8.199v1.746h-3.055V27.7h-2.082v-8.572H45.437z M73.651,79.188H51.136
		c-0.552,0-1.001-0.809-1.001-1.808c0-0.994,0.449-1.803,1.001-1.803h22.516c0.551,0,1,0.809,1,1.803
		C74.651,78.38,74.202,79.188,73.651,79.188z M73.651,70.615H51.136c-0.552,0-1.001-0.805-1.001-1.803
		c0-0.995,0.449-1.804,1.001-1.804h22.516c0.551,0,1,0.809,1,1.804C74.651,69.811,74.202,70.615,73.651,70.615z M73.651,62.5H51.136
		c-0.552,0-1.001-0.809-1.001-1.807c0-0.994,0.449-1.796,1.001-1.796h22.516c0.551,0,1,0.802,1,1.796
		C74.651,61.691,74.202,62.5,73.651,62.5z M73.651,53.03H51.136c-0.552,0-1.001-0.809-1.001-1.803c0-0.995,0.449-1.804,1.001-1.804
		h22.516c0.551,0,1,0.809,1,1.804C74.651,52.222,74.202,53.03,73.651,53.03z M73.651,44.006H51.136
		c-0.552,0-1.001-0.802-1.001-1.799c0-0.999,0.449-1.81,1.001-1.81h22.516c0.551,0,1,0.811,1,1.81
		C74.651,43.204,74.202,44.006,73.651,44.006z M73.651,35.891H51.136c-0.552,0-1.001-0.806-1.001-1.803
		c0-0.996,0.449-1.805,1.001-1.805h22.516c0.551,0,1,0.809,1,1.805C74.651,35.085,74.202,35.891,73.651,35.891z M74.561,27.7H72.35
		l4.018-10.318h2.206L82.702,27.7h-2.266l-0.9-2.344h-4.124L74.561,27.7z M78.108,77.381c0-0.994,0.244-1.803,0.545-1.803h12.279
		c0.303,0,0.546,0.809,0.546,1.803c0,0.999-0.243,1.808-0.546,1.808H78.653C78.353,79.188,78.108,78.38,78.108,77.381z"/>
</g>
</svg>
