<?xml version="1.0" encoding="utf-8"?>
<!-- Generator: Adobe Illustrator 15.0.0, SVG Export Plug-In . SVG Version: 6.00 Build 0)  -->
<!DOCTYPE svg PUBLIC "-//W3C//DTD SVG 1.1//EN" "http://www.w3.org/Graphics/SVG/1.1/DTD/svg11.dtd">
<svg version="1.1" id="Layer_1" xmlns="http://www.w3.org/2000/svg" xmlns:xlink="http://www.w3.org/1999/xlink" x="0px" y="0px"
	 width="68px" height="68px" viewBox="13 0 68 68" enable-background="new 13 0 68 68" xml:space="preserve">
<path fill="#00539B" d="M47,0.836C28.684,0.836,13.836,15.684,13.836,34c0,18.316,14.848,33.164,33.164,33.164
	c18.316,0,33.164-14.848,33.164-33.164C80.164,15.684,65.316,0.836,47,0.836z M41.208,13.183c-0.665-2.66,1.663-4.322,0.998-6.815
	c-1.83,0.832-2.66,4.322-4.488,4.655c0.165-2.494-1.829-0.998-3.326-0.665c-1.827,0.499-3.822,0-2.991,2.992
	c1.164-0.666,2.327-1.662,3.824-1.828c0.331,1.33,0.83,9.142-1.331,5.983c-0.167,1.995-0.831,1.497-1.829,2.327
	c-0.498,0.499-1.829,1.164-2.659,1.994c-0.998,0.666-2.327,1.164-2.992,1.996c-0.998,0.997-0.832,2.328-1.828,3.159
	c-0.334-0.831-0.833-2.992-2.163-2.66c-1.495,0.332-1.329,3.324-1.163,4.322c0.167,0,0.498,0,0.666,0
	c0.166,1.163,0,3.491,0.831,4.321c0.997,0.998,2.161,0.166,3.324,0.665c0.666,0.499,1.164,1.33,1.829,1.829
	c0.998,0.666,2.327,0.666,3.159,1.33c1.33,0.831,1.164,1.164,1.995,2.327c1.329,1.828,2.66,2.992,4.322,4.154
	c2.659,1.996,1.829,1.664,0.997,4.322c-0.333,1.329,0.333,1.495-0.499,2.825c-0.499,0.665-1.663,1.331-2.161,1.995
	c-0.665,0.832-0.997,1.662-1.496,2.494c-0.831,1.328-1.164,0.166-1.33,1.992c-0.166,1.828,0.997,4.156,1.495,5.985
	c-4.155-1.496-5.817-7.813-7.479-11.637c-0.832-2.327-0.998-3.656-2.661-5.651c-1.661-1.826-3.324-3.324-2.991-6.148
	c0.167-1.163,1.163-1.994,1.33-2.826c0.332-1.995-0.333-1.33-1.33-2.993c-0.997-1.828-1.995-4.82-2.327-7.146
	c-0.665-3.99,2.327-7.98,4.322-11.471C27.744,7.696,37.718,4.539,45.862,4.539l0.831,0.498
	C46.528,9.526,46.029,11.521,41.208,13.183z M75.007,25.34c-0.382-0.79-1.375-1.658-1.909-0.237
	c-0.383,0.868,0.688,1.893,0.84,2.762c0.229,0.868-0.152,2.05-0.535,2.918c-0.305,0.711-1.832,1.894-1.069,2.289
	c1.3,0.789,1.757-1.894,2.599-1.499c1.451,0.788-1.07,5.207-1.451,5.837c-1.069,2.053-0.383,4.339-0.918,6.55
	c-0.457,1.813-2.14,2.996-2.14,4.97c0,0.867,0.229,1.578-0.075,2.366c-0.383,0.71-1.604,2.209-2.291,2.763
	c-0.916,0.631-4.433,2.604-5.502,2.444c0.383-1.185-0.076-2.444-0.229-3.708c-0.153-1.025-0.842-2.445-0.764-3.313
	c0-0.475,0.457-1.342,0.533-1.894c0.152-0.633,0.383-1.026,0.307-1.735c-0.076-0.789-0.611-1.026-0.993-1.656
	c-0.458-0.633-0.765-1.657-1.376-2.131c0.918-1.185,0.84-0.946,0-1.974c-0.688-0.71-0.61-0.789-1.604-0.946
	c-1.986-0.156-3.592,1.5-5.426,2.053c-1.984,0.631-3.818-1.264-4.277-3.236c-0.152-0.63-0.076-1.893,0-2.68
	c0.076-1.027,0-1.816-0.152-2.921c-0.152-1.578,0.841-1.578,1.833-2.603c0.688-0.632,1.376-1.657,0.612-2.446
	c1.984,0.158,2.443-0.552,3.896-1.577c1.224-0.946,3.36-1.894,3.896-0.079c1.146-0.71,1.451,1.183,2.752,0.868
	c0.687-0.158,0.764-0.868,1.373-1.025c0.688-0.157,1.299,0.237,1.91,0.158c0.611-0.158,2.598-1.815,2.139-2.682
	c-0.305-0.473-1.985,0.157-2.442,0c-0.61-0.079-0.918-0.315-1.377-0.71c-0.457,1.578-1.146,0.237-1.832,0.079
	c-1.224-0.395-0.993,0.238-1.146,1.263c-0.842,0.158-0.918-1.737-1.683-2.288c-0.687-0.552-1.832-0.394-2.673,0.315
	c-0.766,0.71-1.068,1.579-1.91,2.209c-0.917,0.632-1.757,1.026-2.826,1.105c0-0.631-0.152-1.972,0.307-2.524
	c0.457-0.553,1.604-0.474,2.139-1.183c-0.382-0.553-1.299-0.789-0.993-1.5c-0.075-0.08-0.151-0.08-0.229-0.08
	c-0.229-0.789,0.229-0.631-0.381-1.104c-0.61-0.394-0.842-0.079-1.299-0.631c-0.535-0.632-0.918-2.288,0-2.918
	c1.069-0.63,4.889,4.102,3.896,0.473c-0.306-0.946-0.917-1.814-1.222-2.84c-0.23-0.947,0-1.578-0.153-2.524
	C52.93,8.777,52.7,8.461,54.075,8.224c0.841-0.157,1.682,0.159,2.521-0.157c-0.152-1.104-3.973-2.604-3.515-3.551
	c0.459-0.71,2.827,0.631,3.285,0.868l0.95,0.158c1.375,0.316,2.717,0.316,3.938,1.026c0.841,0.468,1.376,1.258,2.14,1.888
	c1.146,0.868,2.521,1.42,3.666,2.288c2.979,2.129,4.586,5.603,6.496,8.679c1.146,1.894,2.672,4.023,2.672,6.312
	C76.307,27.628,75.541,26.128,75.007,25.34z"/>
</svg>
