<?xml version="1.0" encoding="utf-8"?>
<!-- Generator: Adobe Illustrator 15.0.0, SVG Export Plug-In . SVG Version: 6.00 Build 0)  -->
<!DOCTYPE svg PUBLIC "-//W3C//DTD SVG 1.1//EN" "http://www.w3.org/Graphics/SVG/1.1/DTD/svg11.dtd">
<svg version="1.1" id="Layer_1" xmlns="http://www.w3.org/2000/svg" xmlns:xlink="http://www.w3.org/1999/xlink" x="0px" y="0px"
	 width="125px" height="90px" viewBox="0 0 125 90" enable-background="new 0 0 125 90" xml:space="preserve">
<g>
	<path fill="#F5F5F5" d="M99.747,76.082L80.366,36.496v-5.921c2.991-0.53,5.282-3.37,5.282-6.783V10.676
		c0-3.789-2.823-6.872-6.295-6.872H45.646c-3.471,0-6.295,3.083-6.295,6.872v13.116c0,3.413,2.291,6.253,5.283,6.783v5.92
		l-19.38,39.587c-1.025,2.093-0.979,4.667,0.12,6.717c1.125,2.096,3.206,3.397,5.432,3.397h63.391c2.226,0,4.306-1.302,5.432-3.397
		C100.726,80.748,100.771,78.175,99.747,76.082z M46.128,11.012c0-0.605,0.306-0.958,0.438-1.008l31.859-0.003
		c0.128,0.037,0.446,0.392,0.446,1.011v12.693c0,0.619-0.318,0.974-0.417,1.008c-2.527,0-4.584,2.092-4.584,4.664v6.851
		c0,0.703,0.16,1.409,0.463,2.043l18.444,38.514c0.193,0.404,0.186,0.979-0.021,1.369c-0.104,0.199-0.236,0.294-0.253,0.304
		l-59.98,0.003c-0.044-0.013-0.178-0.107-0.282-0.308c-0.204-0.39-0.211-0.965-0.02-1.368l18.443-38.513
		c0.303-0.631,0.463-1.338,0.463-2.044v-6.851c0-2.57-2.053-4.661-4.549-4.661c-0.002,0-0.003,0-0.005,0
		c-0.127-0.037-0.446-0.392-0.446-1.011V11.012z"/>
	<path fill="#F5F5F5" d="M87.301,74.803L74.36,47.834c-0.085-0.178-7.092-5.223-11.352-2.179c-3.207,2.294-4.525,1.458-8.334,0.872
		c-0.966-0.148-1.693-0.84-2.537-1.066L37.7,74.803H87.301z M73.352,59.633c2.93,0,5.303,2.362,5.303,5.274
		c0,2.916-2.373,5.278-5.303,5.278c-2.931,0-5.305-2.362-5.305-5.278C68.047,61.995,70.421,59.633,73.352,59.633z M64.657,56.935
		c1.511,0,2.734,1.217,2.734,2.719c0,1.504-1.224,2.721-2.734,2.721c-1.508,0-2.732-1.217-2.732-2.721
		C61.925,58.151,63.149,56.935,64.657,56.935z M62.357,63.871c1.846,0,3.341,1.486,3.341,3.322c0,1.837-1.495,3.323-3.341,3.323
		c-1.844,0-3.339-1.486-3.339-3.323C59.019,65.357,60.513,63.871,62.357,63.871z"/>
</g>
</svg>
