<?xml version="1.0" encoding="utf-8"?>
<!-- Generator: Adobe Illustrator 15.0.0, SVG Export Plug-In . SVG Version: 6.00 Build 0)  -->
<!DOCTYPE svg PUBLIC "-//W3C//DTD SVG 1.0//EN" "http://www.w3.org/TR/2001/REC-SVG-20010904/DTD/svg10.dtd">
<svg version="1.0" id="Layer_1" xmlns="http://www.w3.org/2000/svg" xmlns:xlink="http://www.w3.org/1999/xlink" x="0px" y="0px"
	 width="125px" height="90px" viewBox="0 0 125 90" enable-background="new 0 0 125 90" xml:space="preserve">
<g>
	<path fill="#FFFFFF" d="M64.254,40.375l18.593-20.078c0.296-0.323,0.457-0.739,0.457-1.161c0-0.231-0.05-0.463-0.144-0.685
		c-0.273-0.624-0.889-1.025-1.568-1.025h-7.784V5.454c0-0.867-0.652-1.599-1.513-1.697L54.312,3.691
		c-0.496-0.083-1.007,0.042-1.396,0.346c-0.39,0.298-0.614,0.744-0.617,1.216l-0.107,12.174h-7.785
		c-0.679,0-1.295,0.403-1.566,1.026c-0.095,0.221-0.142,0.455-0.142,0.684c0,0.422,0.156,0.838,0.455,1.162l18.591,20.078
		c0.323,0.348,0.78,0.548,1.255,0.548C63.476,40.923,63.931,40.723,64.254,40.375z"/>
	<g>
		<g>
			<path fill="#FFFFFF" d="M55.723,78.503L42.05,39.328c0,0-0.797-3.358-5.035-3.358c-4.317-0.165-5.196,3.758-5.196,3.758
				L17.907,79.62c0,0-1.758,4.278,2.714,5.438c4.416,1.141,5.757-2.959,5.757-2.959s1.64-5.52,4.798-5.438
				c4.479-0.097,7.676-0.002,11.675,0.084c3.837,0.079,4.792,5.434,4.792,5.434s1.122,5.075,6.556,2.558
				C57.673,83.129,55.723,78.503,55.723,78.503z M39.594,66.417c-0.32,0.008-4.895-0.023-5.233-0.056
				c-2.397-0.224-1.579-2.292-1.409-2.774c0.328-0.955,2.183-6.473,2.254-6.657c0.261-0.691,0.961-1.185,1.785-1.174
				c0.841,0.008,1.546,0.538,1.78,1.263c0.051,0.167,2.293,6.51,2.292,6.698C41.063,63.928,42.073,66.363,39.594,66.417z"/>
		</g>
		<g>
			<g>
				<g>
					<g>
						<path fill="#FFFFFF" d="M107.888,78.2l-13.67-39.171c0,0-0.801-3.358-5.04-3.358c-4.317-0.163-5.194,3.76-5.194,3.76
							L70.072,79.318c0,0-1.758,4.28,2.717,5.441c4.413,1.138,5.756-2.96,5.756-2.96s1.64-5.52,4.797-5.438
							c4.48-0.097,7.679-0.002,11.675,0.081c3.835,0.084,4.796,5.437,4.796,5.437s1.121,5.078,6.555,2.558
							C109.838,82.829,107.888,78.2,107.888,78.2z M91.76,66.117c-0.321,0.005-4.896-0.021-5.236-0.054
							c-2.396-0.229-1.576-2.299-1.407-2.776c0.331-0.955,2.185-6.473,2.252-6.655c0.264-0.693,0.968-1.188,1.787-1.179
							c0.838,0.013,1.548,0.541,1.779,1.266c0.059,0.17,2.297,6.508,2.292,6.693C93.227,63.628,94.238,66.063,91.76,66.117z"/>
					</g>
				</g>
			</g>
		</g>
		<path fill="#FFFFFF" d="M59.267,45.209c0.371,0.45,3.629,5.651,3.629,5.651l3.437-5.275c0,0,1.358-2.639,3.919-0.961
			c2.043,1.337,0.719,3.517,0.719,3.517l-5.035,8.237l-0.203,11.857c0,0-0.198,2.929-2.594,3.092
			c-2.959-0.163-2.959-3.198-2.959-3.198l0.16-11.672c0,0-5.837-8.137-5.837-9.597c0-1.455,1.2-2.635,2.679-2.635
			C58.025,44.226,58.776,44.609,59.267,45.209z"/>
	</g>
</g>
</svg>
