<?xml version="1.0" encoding="utf-8"?>
<!-- Generator: Adobe Illustrator 15.0.0, SVG Export Plug-In . SVG Version: 6.00 Build 0)  -->
<!DOCTYPE svg PUBLIC "-//W3C//DTD SVG 1.0//EN" "http://www.w3.org/TR/2001/REC-SVG-20010904/DTD/svg10.dtd">
<svg version="1.0" id="Layer_1" xmlns="http://www.w3.org/2000/svg" xmlns:xlink="http://www.w3.org/1999/xlink" x="0px" y="0px"
	 width="125px" height="90px" viewBox="0 0 125 90" enable-background="new 0 0 125 90" xml:space="preserve">
<g>
	<g>
		<path fill="#F5F5F5" d="M77.868,64.301c-0.032-0.091-0.123-0.154-0.228-0.156c-0.103,0-0.188,0.063-0.224,0.149
			c-0.01,0.021-0.239,0.71-0.281,0.831c-0.021,0.061-0.125,0.32,0.177,0.348c0.041,0.002,0.613,0.006,0.656,0.006
			c0.311-0.006,0.182-0.312,0.182-0.336C78.15,65.117,77.872,64.324,77.868,64.301z"/>
		<path fill="#F5F5F5" d="M76.624,51.497c0.022,0.055,0.044,0.112,0.067,0.172c-1.065-0.388-5.283-1.047-5.299-1.123
			c-0.988,0.332-3.498,0.504-6.567,0.612l-0.901,2.556l-0.379,3.757h-0.863l4.86,30.084h18.537V72.752
			c4.563,3.835,6.485,10.094,7.294,14.803h13.771C104.762,63.643,88.779,54.779,76.624,51.497z M73.266,67.813
			c-0.681,0.31-0.822-0.321-0.822-0.321s-0.118-0.671-0.598-0.681c-0.5-0.012-0.902-0.023-1.463-0.012
			c-0.394-0.008-0.602,0.682-0.602,0.682s-0.165,0.515-0.721,0.371c-0.561-0.146-0.34-0.684-0.34-0.684l1.742-4.995
			c0,0,0.109-0.489,0.648-0.466c0.533,0,0.633,0.417,0.633,0.417l1.713,4.903C73.458,67.027,73.699,67.609,73.266,67.813z
			 M74.708,65.746c0,0-0.022,0.363-0.322,0.388c-0.372-0.022-0.372-0.399-0.372-0.399l0.02-1.463c0,0-0.729-1.018-0.729-1.203
			c0-0.18,0.149-0.328,0.334-0.328c0.106,0,0.199,0.049,0.264,0.119c0.045,0.059,0.455,0.711,0.455,0.711l0.429-0.659
			c0,0,0.17-0.332,0.491-0.122c0.255,0.167,0.092,0.439,0.092,0.439l-0.635,1.035L74.708,65.746z M79.798,67.771
			c-0.682,0.317-0.821-0.319-0.821-0.319s-0.121-0.67-0.601-0.681c-0.502-0.012-0.899-0.021-1.462-0.012
			c-0.396-0.006-0.6,0.684-0.6,0.684s-0.17,0.513-0.724,0.371c-0.558-0.146-0.339-0.686-0.339-0.686l1.744-4.995
			c0,0,0.105-0.487,0.646-0.468c0.53,0,0.631,0.419,0.631,0.419l1.715,4.906C79.989,66.992,80.232,67.572,79.798,67.771z"/>
		<path fill="#F5F5F5" d="M58.045,53.408l-0.849-2.068c-4.774,0.104-9.211,0.229-10.6,0.678
			c-11.884,3.649-26.474,12.772-28.74,35.537h13.767c0.813-4.709,2.734-10.968,7.297-14.803v14.803h16.964l3.738-30.084h-0.969
			L58.045,53.408z"/>
		<path fill="#F5F5F5" d="M71.334,64.339c-0.027-0.089-0.116-0.157-0.223-0.159c-0.103,0-0.19,0.063-0.225,0.148
			c-0.009,0.023-0.242,0.714-0.283,0.837c-0.021,0.06-0.121,0.313,0.18,0.346c0.041,0.005,0.615,0.009,0.652,0.005
			c0.313-0.005,0.185-0.313,0.185-0.338C71.62,65.157,71.341,64.361,71.334,64.339z"/>
	</g>
	<g>
		<path fill="#F5F5F5" d="M74.061,31.668c-0.953,0.236-6.955,1.655-13.186,1.655c-7.17,0-12.654-1.351-13.854-1.671
			c-1.415-0.315-3.059-0.747-4.736-1.319c-0.013,0.288-0.022,0.576-0.022,0.868c0,10.294,8.346,18.646,18.644,18.646
			c10.297,0,18.644-8.353,18.644-18.646c0-0.369-0.013-0.734-0.033-1.097C77.588,30.802,75.675,31.31,74.061,31.668z"/>
		<path fill="#F5F5F5" d="M81.042,19.476c0,0-1.543-9.428-9.685-14.211c0.043,0.437,0.031,0.888-0.049,1.352
			c-0.022,0.137-0.06,0.272-0.107,0.402l-3.109,8.475c-0.314,1.01-1.693,3.623-7.518,3.623c-5.823,0-7.203-2.613-7.519-3.623
			l-3.108-8.475c-0.049-0.13-0.085-0.265-0.107-0.402c-0.08-0.464-0.091-0.915-0.049-1.352c-8.142,4.782-9.686,14.21-9.686,14.21
			c-3.503,1.54-2.581,3.248-2.581,3.248c0.185,3.761,11.064,6.154,11.064,6.154s5.156,1.481,12.286,1.481
			c5.901,0,11.687-1.481,11.687-1.481s10.881-2.393,11.063-6.153C83.623,22.724,84.545,21.013,81.042,19.476z"/>
		<path fill="#F5F5F5" d="M55.596,14.774c0,0,0.369,1.88,4.979,1.88l0,0l0,0c4.61,0,4.979-1.88,4.979-1.88l3.135-8.548
			c0.736-4.271-8.105-3.761-8.113-3.761c-0.007,0-8.851-0.511-8.112,3.761L55.596,14.774z"/>
	</g>
</g>
</svg>
