<?xml version="1.0" encoding="utf-8"?>
<!-- Generator: Adobe Illustrator 15.0.0, SVG Export Plug-In . SVG Version: 6.00 Build 0)  -->
<!DOCTYPE svg PUBLIC "-//W3C//DTD SVG 1.1//EN" "http://www.w3.org/Graphics/SVG/1.1/DTD/svg11.dtd">
<svg version="1.1" id="Layer_1" xmlns="http://www.w3.org/2000/svg" xmlns:xlink="http://www.w3.org/1999/xlink" x="0px" y="0px"
	 width="96px" height="90px" viewBox="0 0 96 90" enable-background="new 0 0 96 90" xml:space="preserve">
<g>
	<path fill="#00539B" d="M93.913,43.384l-5.623-2.708l-7.746-9.386c-0.091-0.11-0.218-0.176-0.36-0.191l-2.053-0.192L61.705,4.554
		c-0.061-0.093-0.202-0.25-0.482-0.239c-0.068,0.003-0.125,0.013-0.164,0.029l-2.119,0.851c-0.172,0.069-0.297,0.222-0.323,0.403
		l-0.957,5.433l-2.619,1.063l-7.5-1.345l-1.962-3.328L33.859,2.799c-0.064-0.024-0.136-0.034-0.208-0.031
		c-0.075,0.003-0.193,0.034-0.274,0.086L27,7.116L9.175,0.988C9.123,0.969,9.04,0.956,8.979,0.958C8.76,0.966,8.565,1.111,8.5,1.313
		L6.501,7.015L2.637,8.617C2.474,8.683,2.354,8.826,2.318,9l-0.519,2.483c-0.059,0.283,0.12,0.559,0.407,0.625l3.915,0.853
		l2.344,5.713l-3.822,6.91l-0.436,6.519l6.678,9.58c0.077,0.11,0.195,0.189,0.335,0.22l7.645,1.406l7.005,6.332
		c0.108,0.104,0.245,0.146,0.442,0.139c0,0,0.001,0,0.002,0c0.16-0.023,0.298-0.117,0.377-0.256l5.477-9.438
		c0.081-0.14,0.093-0.308,0.036-0.461c-0.059-0.149-0.178-0.264-0.329-0.31l-10.096-3.327l-0.299-4.367l1.336-0.226l10.764,5.509
		l4.361,7.913l4.347,5.1l7.993,1.435l2.99,2.174l13.574,10.664l-0.588,7.41l-2.072,2.082c-0.103,0.104-0.154,0.236-0.152,0.379
		c0,0.145,0.06,0.275,0.164,0.381l5.044,4.713l3.54,0.775l4.515,1.231c0.147-0.005,0.288-0.073,0.386-0.185l1.762-2.066
		c0.188-0.219,0.166-0.553-0.055-0.749l-7.426-6.44l0.773-1.023l5.355,2.092l3.895,4.462L82,81.359
		c0.002,0.134,0.052,0.257,0.141,0.351l3.479,3.791l2.127,3.299c0.104,0.157,0.277,0.25,0.468,0.242c0.009,0,0.114-0.013,0.163-0.03
		l1.369-0.517c0.138-0.056,0.24-0.154,0.296-0.283c0.062-0.133,0.062-0.282,0.003-0.42l-2.005-4.748l-0.886-4.045L88.33,77.3
		c0.076-0.106,0.111-0.241,0.095-0.366l-0.901-7.759l2.802-3.946c0.147-0.209,0.124-0.496-0.058-0.681l-3.14-3.177l-1.548-2.278
		l-0.535-13.757l6.729,2.771c0.07,0.029,0.166,0.043,0.229,0.041c0.2-0.008,0.381-0.125,0.463-0.312l1.701-3.755
		C94.282,43.82,94.17,43.514,93.913,43.384z M57.307,44.884c-6.731,0.262-12.391-4.714-12.641-11.113
		c-0.021-0.545,0.014-1.079,0.068-1.609c0.09,0.009,7.37,0.677,8.641-5.019c0,0,0.385,5.802,15.648,6.629
		C68.749,39.746,63.7,44.635,57.307,44.884z M53.291,24.974c-1.277,5.727-8.27,5.671-8.287,5.672c1.239-4.94,5.802-8.71,11.4-8.928
		c6.517-0.253,12.016,4.407,12.582,10.514C54.006,31.3,53.291,24.974,53.291,24.974z M73.486,37.36
		c-0.002,0.684-0.807,1.236-1.803,1.24c-0.996,0.001-1.807-0.549-1.807-1.229l-0.01-6.088c0-0.265,0.119-0.506,0.322-0.707
		c-1.699-6.177-7.338-10.606-13.858-10.352C49.79,20.478,44.5,25.358,43.306,31.677c0.192,0.182,0.314,0.403,0.329,0.649
		l0.375,6.077c0.022,0.371-0.2,0.715-0.567,0.963c0.166,3.24,3.582,7.061,9.558,8.018c0.34-0.508,1.085-0.829,1.931-0.778
		l1.308,0.076c1.128,0.066,2.008,0.776,1.961,1.586l-0.009,0.116c-0.045,0.812-0.988,1.408-2.116,1.341l-1.31-0.076
		c-0.723-0.043-1.341-0.353-1.683-0.776c-7.336-1.011-11.711-5.361-11.888-9.311c-0.452-0.197-0.759-0.533-0.783-0.935l-0.375-6.078
		c-0.039-0.617,0.598-1.166,1.46-1.307c1.387-7.129,7.376-12.639,14.762-12.926c7.388-0.288,13.792,4.748,15.726,11.75
		c0.847,0.103,1.49,0.603,1.492,1.21L73.486,37.36z"/>
</g>
<polygon fill="#00539B" points="154.566,16.092 157.184,57.99 152.475,58.49 150.057,17.484 "/>
</svg>
