<?xml version="1.0" encoding="utf-8"?>
<!-- Generator: Adobe Illustrator 15.0.0, SVG Export Plug-In . SVG Version: 6.00 Build 0)  -->
<!DOCTYPE svg PUBLIC "-//W3C//DTD SVG 1.1//EN" "http://www.w3.org/Graphics/SVG/1.1/DTD/svg11.dtd">
<svg version="1.1" id="Layer_1" xmlns="http://www.w3.org/2000/svg" xmlns:xlink="http://www.w3.org/1999/xlink" x="0px" y="0px"
	 width="75px" height="68px" viewBox="0 0 75 68" enable-background="new 0 0 75 68" xml:space="preserve">
<g>
	<path fill="#00539B" d="M6.799,51.159c0.107-3.434-6.367,4.949-5.391,9.817c0.681,3.399,3.124,5.907,5.775,5.53
		c2.651-0.375,4.397-3.467,3.904-6.904C10.592,56.167,6.626,56.646,6.799,51.159z"/>
	<g>
		<polygon fill="#00539B" points="72.763,2.637 61.702,40.86 56.928,37.21 43.018,62.337 56.12,24.111 60.52,27.758 		"/>
		<g>
			<circle fill="#00539B" cx="34.857" cy="5.121" r="3.665"/>
			<g>
				<path fill="#00539B" d="M30.019,2.956c-4.655-0.309-9.308-0.617-13.963-0.922c-0.345-0.024-1.352-0.052-2.058,0.106
					c-3.554,0.876-3.554,4.605,0,5.483c0.707,0.159,1.713,0.132,2.058,0.109c4.655-0.308,9.306-0.617,13.963-0.923
					c-0.481-0.567-0.753-1.225-0.753-1.927C29.264,4.177,29.538,3.521,30.019,2.956z"/>
			</g>
			<g>
				<path fill="#00539B" d="M39.636,6.983c4.662,0.219,9.32,0.442,13.978,0.659c0.344,0.02,1.35,0.028,2.057-0.142
					c3.539-0.943,3.464-4.674-0.103-5.482c-0.712-0.149-1.713-0.102-2.062-0.071c-4.647,0.392-9.294,0.79-13.941,1.185
					c0.49,0.557,0.775,1.208,0.788,1.912C40.369,5.748,40.104,6.411,39.636,6.983z"/>
			</g>
		</g>
		<path fill="#00539B" d="M1.444,48.604h11.671c0,0-1.052-11.167,6.481-10.307l28.717-0.721l5.441-13.885h-7.947
			c0,0-2.145-0.855-2.576-2.357H25.651c0,0-3.847,2.789-5.114,2.789C20.537,24.123-0.847,21.976,1.444,48.604z"/>
		<rect x="25.98" y="15.531" fill="#00539B" width="17.038" height="3.649"/>
		<rect x="30.365" y="10.164" fill="#00539B" width="9.174" height="3.652"/>
		<polygon fill="#00539B" points="73.728,23.691 73.728,38.511 65.038,38.511 69.286,23.691 		"/>
	</g>
</g>
</svg>
