<?xml version="1.0" encoding="utf-8"?>
<!-- Generator: Adobe Illustrator 15.0.0, SVG Export Plug-In . SVG Version: 6.00 Build 0)  -->
<!DOCTYPE svg PUBLIC "-//W3C//DTD SVG 1.0//EN" "http://www.w3.org/TR/2001/REC-SVG-20010904/DTD/svg10.dtd">
<svg version="1.0" id="Layer_1" xmlns="http://www.w3.org/2000/svg" xmlns:xlink="http://www.w3.org/1999/xlink" x="0px" y="0px"
	 width="125px" height="90px" viewBox="0 0 125 90" enable-background="new 0 0 125 90" xml:space="preserve">
<g>
	<path fill="#F5F5F5" d="M62.618,11.741c-15.156,0-27.885,9.714-31.76,22.94c0.043,0.009,18.945,0.889,22.999-14.462
		c0,0,1.276,17.188,41.678,21.28C94.646,24.92,80.27,11.741,62.618,11.741z"/>
	<path fill="#F5F5F5" d="M53.857,26.089C49.822,41.362,30.21,38.786,29.97,38.754c-0.206,1.426-0.357,2.87-0.357,4.35
		c0,17.326,14.785,31.373,33.005,31.373c17.319,0,31.491-12.688,32.864-28.817C54.286,41.824,53.857,26.089,53.857,26.089z"/>
	<path fill="#F5F5F5" d="M103.887,35.95C99.4,16.803,82.596,2.526,62.588,2.526c-20.005,0-36.817,14.263-41.312,33.394
		c-2.328,0.306-4.087,1.716-4.051,3.383l0.378,16.466c0.026,1.092,0.82,2.029,2.013,2.612C19.68,69.093,31.048,81.365,50.817,84.85
		c0.886,1.172,2.509,2.049,4.438,2.237l3.52,0.349c3.044,0.303,5.679-1.218,5.881-3.396l0.031-0.33
		c0.201-2.177-2.1-4.184-5.144-4.482l-3.522-0.353c-2.281-0.222-4.329,0.577-5.301,1.905c-16.052-3.204-24.897-13.889-25.014-22.674
		c1.025-0.638,1.675-1.549,1.653-2.559L26.985,39.08c-0.015-0.676-0.33-1.296-0.848-1.812c3.904-16.953,18.735-29.57,36.451-29.57
		c17.667,0,32.454,12.548,36.403,29.431c-0.584,0.525-0.941,1.171-0.968,1.887l-0.612,16.46c-0.071,1.842,2.058,3.418,4.751,3.519
		c2.689,0.099,4.936-1.313,5.002-3.158l0.609-16.458C107.837,37.735,106.154,36.314,103.887,35.95z"/>
</g>
</svg>
