<?xml version="1.0" encoding="utf-8"?>
<!-- Generator: Adobe Illustrator 15.0.0, SVG Export Plug-In . SVG Version: 6.00 Build 0)  -->
<!DOCTYPE svg PUBLIC "-//W3C//DTD SVG 1.1//EN" "http://www.w3.org/Graphics/SVG/1.1/DTD/svg11.dtd">
<svg version="1.1" id="Layer_1" xmlns="http://www.w3.org/2000/svg" xmlns:xlink="http://www.w3.org/1999/xlink" x="0px" y="0px"
	 width="50px" height="68px" viewBox="22 0 50 68" enable-background="new 22 0 50 68" xml:space="preserve">
<g>
	<g>
		<path fill="#00539B" d="M53.407,16.681c0,1.157,0.209,1.982,0.624,2.478c0.087,0.103,0.183,0.191,0.279,0.27v-5.377
			c-0.095,0.081-0.187,0.161-0.27,0.256C53.614,14.793,53.407,15.582,53.407,16.681z"/>
		<path fill="#00539B" d="M55.309,13.609v6.249c0.109,0.017,0.227,0.033,0.352,0.033c0.166,0,0.322-0.024,0.479-0.061V13.62
			c-0.144-0.031-0.285-0.045-0.438-0.045C55.559,13.577,55.432,13.59,55.309,13.609z"/>
		<path fill="#00539B" d="M62.497,9.221H31.499c-0.373,0-0.674,0.348-0.674,0.774v14.263c0,0.428,0.3,0.777,0.674,0.777h30.998
			c0.377,0,0.679-0.348,0.679-0.777V9.997C63.176,9.568,62.874,9.221,62.497,9.221z M35.384,13.621c0-0.383,0.295-0.695,0.662-0.695
			h7.979c0.367,0,0.664,0.312,0.664,0.695v0.248c0,0.384-0.294,0.695-0.664,0.695h-7.979c-0.365,0-0.662-0.311-0.662-0.695V13.621
			L35.384,13.621z M47.742,20.846c0,0.382-0.394,0.695-0.882,0.695H36.266c-0.488,0-0.882-0.316-0.882-0.695v-0.249
			c0-0.381,0.395-0.695,0.882-0.695H46.86c0.488,0,0.882,0.314,0.882,0.695V20.846z M47.742,17.472c0,0.384-0.394,0.695-0.882,0.695
			H36.266c-0.488,0-0.882-0.311-0.882-0.695v-0.248c0-0.383,0.395-0.69,0.882-0.69H46.86c0.488,0,0.882,0.307,0.882,0.69V17.472z
			 M58.113,20.747c-0.293,0.222-0.622,0.388-0.99,0.506v0.991H56.13V21.45c-0.151,0.013-0.3,0.03-0.458,0.03
			c-0.126,0-0.246-0.011-0.365-0.017v0.783h-0.994v-0.975c-0.621-0.198-1.172-0.546-1.646-1.041
			c-0.783-0.832-1.176-1.972-1.176-3.415c0-1.521,0.395-2.71,1.184-3.558c0.461-0.491,1.005-0.837,1.636-1.043V11.19h0.996v0.819
			c0.157-0.013,0.316-0.018,0.48-0.018c0.119,0,0.232,0.003,0.347,0.012v-0.812h0.999v0.989c0.535,0.163,0.997,0.428,1.393,0.806
			c0.42,0.393,0.732,0.955,0.936,1.688l-1.834,0.437c-0.087-0.381-0.253-0.698-0.498-0.953v5.046
			c0.252-0.305,0.438-0.719,0.561-1.254l1.795,0.567C59.213,19.52,58.752,20.263,58.113,20.747z"/>
	</g>
	<path fill="#00539B" d="M67.165,0.312H26.837c-2.037,0-3.688,1.652-3.688,3.689v59.999c0,2.039,1.651,3.689,3.688,3.689h40.328
		c2.037,0,3.687-1.65,3.687-3.689V4C70.852,1.963,69.202,0.312,67.165,0.312z M37.533,62.032h-7.869
		c-0.951,0-1.723-0.769-1.723-1.72c0-0.953,0.77-1.722,1.723-1.722h7.865c0.95,0,1.723,0.77,1.723,1.722
		C39.251,61.264,38.481,62.032,37.533,62.032z M47.001,64.245c-2.171,0-3.937-1.759-3.937-3.932c0-2.174,1.762-3.938,3.937-3.938
		c2.171,0,3.933,1.763,3.933,3.938C50.936,62.486,49.173,64.245,47.001,64.245z M64.337,62.032h-7.869
		c-0.952,0-1.721-0.769-1.721-1.72c0-0.953,0.771-1.722,1.721-1.722h7.869c0.95,0,1.724,0.77,1.724,1.722
		C66.059,61.264,65.286,62.032,64.337,62.032z M67.411,49.165c0,1.982-1.577,3.59-3.521,3.59H30.109
		c-1.944,0-3.517-1.606-3.517-3.59V7.524c0-1.982,1.57-3.587,3.517-3.587h33.781c1.942,0,3.516,1.605,3.516,3.587L67.411,49.165
		L67.411,49.165z"/>
	<g>
		<path fill="#00539B" d="M55.511,44.56h2.411c-0.755,1.534-1.914,2.734-3.479,3.604c-1.787,0.994-3.967,1.494-6.543,1.494
			c-2.491,0-4.644-0.423-6.456-1.264s-3.159-2.084-4.043-3.725c-0.882-1.643-1.323-3.43-1.323-5.362
			c0-2.121,0.501-4.097,1.505-5.928c1.004-1.83,2.378-3.204,4.122-4.121c1.743-0.917,3.735-1.375,5.977-1.375
			c1.906,0,3.594,0.371,5.074,1.11c1.479,0.739,2.61,1.791,3.391,3.154c0.783,1.363,1.174,2.851,1.174,4.466
			c0,1.926-0.594,3.665-1.777,5.221c-1.486,1.963-3.393,2.944-5.719,2.944c-0.626,0-1.098-0.11-1.415-0.329
			c-0.317-0.22-0.528-0.539-0.634-0.963c-0.894,0.86-1.92,1.291-3.082,1.291c-1.252,0-2.293-0.431-3.118-1.297
			c-0.827-0.863-1.24-2.016-1.24-3.447c0-1.773,0.499-3.395,1.494-4.857c1.209-1.781,2.757-2.671,4.643-2.671
			c1.345,0,2.337,0.512,2.98,1.54l0.28-1.257h2.99l-1.709,8.121c-0.107,0.512-0.158,0.842-0.158,0.994
			c0,0.188,0.043,0.331,0.129,0.426c0.088,0.094,0.189,0.143,0.313,0.143c0.361,0,0.831-0.221,1.403-0.658
			c0.772-0.573,1.393-1.343,1.868-2.311c0.478-0.965,0.714-1.967,0.714-3c0-1.856-0.673-3.411-2.017-4.661
			c-1.343-1.248-3.22-1.873-5.627-1.873c-2.047,0-3.78,0.417-5.204,1.25c-1.423,0.834-2.495,2.007-3.216,3.521
			c-0.721,1.515-1.082,3.091-1.082,4.728c0,1.594,0.401,3.045,1.206,4.35c0.805,1.307,1.933,2.258,3.385,2.857
			c1.453,0.602,3.117,0.9,4.99,0.9c1.804,0,3.354-0.25,4.652-0.752C53.67,46.316,54.717,45.563,55.511,44.56z M43.268,39.907
			c0,0.959,0.195,1.664,0.583,2.116c0.39,0.452,0.871,0.681,1.443,0.681c0.431,0,0.835-0.107,1.213-0.316
			c0.287-0.151,0.57-0.391,0.849-0.715c0.399-0.461,0.746-1.131,1.037-2.016c0.291-0.883,0.436-1.707,0.436-2.469
			c0-0.854-0.198-1.508-0.594-1.965c-0.396-0.457-0.896-0.687-1.502-0.687c-0.646,0-1.249,0.254-1.8,0.755
			c-0.55,0.502-0.965,1.217-1.245,2.146C43.408,38.366,43.268,39.189,43.268,39.907z"/>
	</g>
</g>
</svg>
