<svg id="Capa_1" data-name="Capa 1" xmlns="http://www.w3.org/2000/svg" viewBox="0 0 85.65 90"><defs><style>.cls-1{fill:#00539b;}</style></defs><title>archivo [Recuperado]</title><path class="cls-1" d="M175,167.4c-8.12,0-14.73,6.94-14.73,15.47s6.61,15.47,14.73,15.47,14.72-6.94,14.72-15.47S183.15,167.4,175,167.4Zm0,27.43c-6.28,0-11.38-5.37-11.38-12s5.1-12,11.38-12,11.37,5.36,11.37,12S181.31,194.83,175,194.83Z" transform="translate(-123.18 -128.38)"/><path class="cls-1" d="M207.17,208.21l-13.28-14a23.74,23.74,0,0,0-3.13-27.15V147.36h0a1.81,1.81,0,0,0-.48-1.24l-16.4-17.22a1.6,1.6,0,0,0-1.18-.51h-44.5a5.16,5.16,0,0,0-5,5.27v79.46a5.15,5.15,0,0,0,5,5.27h57.55a5.16,5.16,0,0,0,5-5.27v-5.29l8.38,8.82a5.5,5.5,0,0,0,8,0A6.19,6.19,0,0,0,207.17,208.21Zm-32.13-6c-10.15,0-18.41-8.68-18.41-19.34s8.26-19.33,18.41-19.33,18.4,8.67,18.4,19.33S185.18,202.21,175,202.21Zm-.68-67.83L185,145.61h-9a1.72,1.72,0,0,1-1.68-1.76Zm13,78.73a1.72,1.72,0,0,1-1.67,1.76H128.19a1.72,1.72,0,0,1-1.67-1.76V133.65a1.71,1.71,0,0,1,1.67-1.75H171v11.95a5.15,5.15,0,0,0,5,5.27h11.37v15A20.93,20.93,0,0,0,175,160c-12,0-21.75,10.25-21.75,22.85a23.84,23.84,0,0,0,1.06,7.06H133.91a1.76,1.76,0,0,0,0,3.51h21.36a1.33,1.33,0,0,0,.45-.07A21.67,21.67,0,0,0,175,205.72a20.76,20.76,0,0,0,10.83-3l1.54,1.63Zm17.39,1a2.26,2.26,0,0,1-3.29,0l-12.84-13.49A22.46,22.46,0,0,0,192,197.2l12.84,13.49A2.53,2.53,0,0,1,204.8,214.15Z" transform="translate(-123.18 -128.38)"/><path class="cls-1" d="M175,175a1.76,1.76,0,0,0,0,3.52,4.3,4.3,0,0,1,4.18,4.39,1.67,1.67,0,1,0,3.34,0A7.73,7.73,0,0,0,175,175Z" transform="translate(-123.18 -128.38)"/><path class="cls-1" d="M149,177.74H133.91a1.76,1.76,0,0,0,0,3.51H149a1.76,1.76,0,0,0,0-3.51Z" transform="translate(-123.18 -128.38)"/><path class="cls-1" d="M150,165.55h-16a1.76,1.76,0,0,0,0,3.52h16a1.76,1.76,0,0,0,0-3.52Z" transform="translate(-123.18 -128.38)"/><path class="cls-1" d="M155,202.11a1.63,1.63,0,0,0-1.18.52,1.83,1.83,0,0,0-.49,1.24,1.81,1.81,0,0,0,.49,1.24,1.6,1.6,0,0,0,2.36,0,1.81,1.81,0,0,0,0-2.48A1.63,1.63,0,0,0,155,202.11Z" transform="translate(-123.18 -128.38)"/><path class="cls-1" d="M148.09,202.11H133.91a1.76,1.76,0,0,0,0,3.52h14.18a1.76,1.76,0,0,0,0-3.52Z" transform="translate(-123.18 -128.38)"/><path class="cls-1" d="M133.91,156.88a1.66,1.66,0,0,0,1.18-.51,1.83,1.83,0,0,0,0-2.49,1.63,1.63,0,0,0-1.18-.52,1.67,1.67,0,0,0-1.19.52,1.83,1.83,0,0,0,0,2.49A1.7,1.7,0,0,0,133.91,156.88Z" transform="translate(-123.18 -128.38)"/><path class="cls-1" d="M166,153.36H141a1.76,1.76,0,0,0,0,3.52h25a1.76,1.76,0,0,0,0-3.52Z" transform="translate(-123.18 -128.38)"/><path class="cls-1" d="M133.91,144.69H166a1.76,1.76,0,0,0,0-3.51H133.91a1.76,1.76,0,0,0,0,3.51Z" transform="translate(-123.18 -128.38)"/></svg>